<svg xmlns="http://www.w3.org/2000/svg" x="0px" y="0px"
width="48" height="48"
viewBox="0 0 172 172"
style=" fill:#000000;"><g fill="none" fill-rule="nonzero" stroke="none" stroke-width="1" stroke-linecap="butt" stroke-linejoin="miter" stroke-miterlimit="10" stroke-dasharray="" stroke-dashoffset="0" font-family="none" font-weight="none" font-size="none" text-anchor="none" style="mix-blend-mode: normal"><path d="M0,172v-172h172v172z" fill="none"></path><g><path d="M50.16667,46.58333h-21.5v-6.45c0,-2.50833 1.79167,-4.3 4.3,-4.3h12.9c2.50833,0 4.3,1.79167 4.3,4.3z" fill="#666666"></path><path d="M143.33333,143.33333h-114.66667c-7.88333,0 -14.33333,-6.45 -14.33333,-14.33333v-50.16667h143.33333v50.16667c0,7.88333 -6.45,14.33333 -14.33333,14.33333z" fill="#94115e"></path><path d="M45.50833,78.83333c-1.43333,4.65833 -2.50833,9.31667 -2.50833,14.33333c0,23.65 19.35,43 43,43c23.65,0 43,-19.35 43,-43c0,-5.01667 -1.075,-9.675 -2.50833,-14.33333z" fill="#83014e"></path><path d="M28.66667,43h114.66667c7.88333,0 14.33333,6.45 14.33333,14.33333v21.5h-143.33333v-21.5c0,-7.88333 6.45,-14.33333 14.33333,-14.33333z" fill="#78909c"></path><path d="M121.475,46.94167h-70.59167l12.18333,-18.275c1.43333,-2.15 3.58333,-3.225 6.09167,-3.225h34.4c2.50833,0 4.65833,1.075 6.09167,3.225z" fill="#78909c"></path><path d="M126.49167,78.83333c-5.73333,-16.84167 -21.85833,-28.66667 -40.49167,-28.66667c-18.63333,0 -34.75833,11.825 -40.49167,28.66667z" fill="#455a64"></path><path d="M86,60.91667c-17.81118,0 -32.25,14.43882 -32.25,32.25c0,17.81118 14.43882,32.25 32.25,32.25c17.81118,0 32.25,-14.43882 32.25,-32.25c0,-17.81118 -14.43882,-32.25 -32.25,-32.25z" fill="#e56eb8"></path><path d="M103.91667,82.41667c-4.3,-5.01667 -10.75,-7.88333 -17.2,-7.88333c-6.45,0 -12.9,2.86667 -17.2,7.88333c-1.79167,1.79167 -1.43333,4.65833 0.35833,6.45c1.79167,1.79167 4.65833,1.43333 6.45,-0.35833c5.375,-6.09167 15.40833,-6.09167 20.78333,0c1.075,1.075 2.15,1.43333 3.58333,1.43333c1.075,0 2.15,-0.35833 3.225,-1.075c1.43333,-1.43333 1.79167,-4.65833 0,-6.45z" fill="#f8a3e3"></path><path d="M129,53.75h17.91667v14.33333h-17.91667z" fill="#dbe2e5"></path></g></g></svg>